<svg width="25" height="14" viewBox="0 0 25 14" fill="none" xmlns="http://www.w3.org/2000/svg">
<path d="M17.9924 0.896881C16.5077 0.896881 15.176 1.37973 14.0337 2.33241C13.8034 2.52468 13.7725 2.86713 13.9645 3.09742C14.1567 3.32772 14.4992 3.3584 14.7295 3.16668C15.6713 2.38129 16.769 1.98317 17.9924 1.98317C20.9496 1.98317 23.3551 4.34475 23.3551 7.24758C23.3551 10.1849 20.9496 12.5745 17.9924 12.5745C15.4899 12.5745 13.8349 10.8644 12.7845 7.19299C11.589 3.01514 9.45747 0.896881 6.44901 0.896881C2.89305 0.896881 0 3.74594 0 7.24758C0 10.7837 2.89305 13.6607 6.44901 13.6607C7.94645 13.6607 9.3092 13.138 10.4995 12.1065C10.7263 11.9099 10.7507 11.5669 10.5544 11.3404C10.358 11.1137 10.0147 11.0892 9.78825 11.2856C8.80109 12.1408 7.6776 12.5745 6.44901 12.5745C3.49187 12.5745 1.08629 10.1849 1.08629 7.24758C1.08629 4.34475 3.49187 1.98317 6.44901 1.98317C8.94882 1.98317 10.6795 3.78504 11.74 7.49172C12.9279 11.6427 14.9731 13.6607 17.9924 13.6607C21.5484 13.6607 24.4414 10.7837 24.4414 7.24758C24.4414 3.74594 21.5484 0.896881 17.9924 0.896881Z" fill="url(#paint0_linear_62_63833)"/>
<defs>
<linearGradient id="paint0_linear_62_63833" x1="0" y1="0.896881" x2="24.4414" y2="0.896881" gradientUnits="userSpaceOnUse">
<stop stop-color="#147D6C"/>
<stop offset="1" stop-color="#1EFFFF"/>
</linearGradient>
</defs>
</svg>
