<svg width="12" height="15" viewBox="0 0 12 15" fill="none" xmlns="http://www.w3.org/2000/svg">
<path d="M11.3531 3.62754L7.99063 0.265039C7.89688 0.171289 7.77031 0.118164 7.6375 0.118164H1C0.723437 0.118164 0.5 0.341602 0.5 0.618164V13.6182C0.5 13.8947 0.723437 14.1182 1 14.1182H11C11.2766 14.1182 11.5 13.8947 11.5 13.6182V3.98223C11.5 3.84941 11.4469 3.72129 11.3531 3.62754ZM10.3469 4.21191H7.40625V1.27129L10.3469 4.21191ZM10.375 12.9932H1.625V1.24316H6.34375V4.61816C6.34375 4.79221 6.41289 4.95913 6.53596 5.0822C6.65903 5.20527 6.82595 5.27441 7 5.27441H10.375V12.9932ZM6.03281 8.18223L5.06719 6.58223C5.03281 6.52598 4.97188 6.4916 4.90625 6.4916H4.30625C4.27031 6.4916 4.23594 6.50098 4.20625 6.52129C4.11875 6.57598 4.09219 6.6916 4.14844 6.78066L5.43437 8.81816L4.13125 10.8932C4.11354 10.9216 4.10376 10.9543 4.10292 10.9878C4.10208 11.0213 4.1102 11.0544 4.12645 11.0837C4.1427 11.1131 4.16649 11.1375 4.19535 11.1545C4.22422 11.1716 4.25711 11.1806 4.29063 11.1807H4.82969C4.89531 11.1807 4.95469 11.1463 4.98906 11.0916L5.96875 9.50566L6.94219 11.09C6.97656 11.1463 7.0375 11.1791 7.10156 11.1791H7.6875C7.72344 11.1791 7.75781 11.1682 7.78906 11.1494C7.87656 11.0932 7.90156 10.9775 7.84531 10.89L6.53281 8.85254L7.86563 6.78223C7.88367 6.75385 7.89377 6.72116 7.89489 6.68755C7.89601 6.65395 7.88811 6.62065 7.87199 6.59114C7.85588 6.56163 7.83215 6.53697 7.80328 6.51974C7.7744 6.50251 7.74144 6.49333 7.70781 6.49316H7.15C7.08437 6.49316 7.02344 6.52754 6.98906 6.58379L6.03281 8.18223Z" stroke="currentColor" stroke-width="1.67" stroke-linecap="round" stroke-linejoin="round"/>
</svg>
