<svg width="14" height="14" viewBox="0 0 14 14" fill="none" xmlns="http://www.w3.org/2000/svg">
<path d="M8.8651 3.88733C9.55239 3.88733 10.1095 4.44448 10.1095 5.13177M12.5984 5.13177C12.5984 7.19363 10.927 8.8651 8.8651 8.8651C8.48793 8.8651 8.12382 8.80917 7.78061 8.70515L6.37622 10.1095H5.13177V11.354H3.88733V12.5984H2.02066C1.67702 12.5984 1.39844 12.3199 1.39844 11.9762V10.3673C1.39844 10.2023 1.46399 10.044 1.58068 9.9273L5.29173 6.21626C5.1877 5.87306 5.13177 5.50895 5.13177 5.13177C5.13177 3.06991 6.80324 1.39844 8.8651 1.39844C10.927 1.39844 12.5984 3.06991 12.5984 5.13177Z" stroke="#171717" stroke-width="1.67" stroke-linecap="round" stroke-linejoin="round"/>
</svg>
