<svg width="160" height="21" viewBox="0 0 160 21" fill="none" xmlns="http://www.w3.org/2000/svg">
<g id="Group">
<g id="SvgjsG1031">
<path id="Vector" d="M17.9924 3.89648C16.5077 3.89648 15.176 4.37934 14.0337 5.33201C13.8034 5.52428 13.7725 5.86674 13.9645 6.09703C14.1567 6.32732 14.4992 6.35801 14.7295 6.16628C15.6713 5.38089 16.769 4.98277 17.9924 4.98277C20.9496 4.98277 23.3551 7.34435 23.3551 10.2472C23.3551 13.1845 20.9496 15.5741 17.9924 15.5741C15.4899 15.5741 13.8349 13.864 12.7845 10.1926C11.589 6.01474 9.45747 3.89648 6.44901 3.89648C2.89305 3.89648 0 6.74554 0 10.2472C0 13.7833 2.89305 16.6603 6.44901 16.6603C7.94645 16.6603 9.3092 16.1376 10.4995 15.1061C10.7263 14.9095 10.7507 14.5665 10.5544 14.34C10.358 14.1133 10.0147 14.0888 9.78825 14.2852C8.80109 15.1404 7.6776 15.5741 6.44901 15.5741C3.49187 15.5741 1.08629 13.1845 1.08629 10.2472C1.08629 7.34435 3.49187 4.98277 6.44901 4.98277C8.94882 4.98277 10.6795 6.78465 11.74 10.4913C12.9279 14.6423 14.9731 16.6603 17.9924 16.6603C21.5484 16.6603 24.4414 13.7833 24.4414 10.2472C24.4414 6.74554 21.5484 3.89648 17.9924 3.89648Z" fill="url(#paint0_linear_109_18720)"/>
</g>
<g id="SvgjsG1032">
<path id="Vector_2" d="M40.1189 9.2233V7.46749H46.7825V15.5908H45.4498L44.9633 13.6234C43.9267 15.0619 42.0228 15.9927 39.9497 15.9927C37.3477 15.9927 36.0784 15.0408 35.2957 14.2792C32.9687 12.0791 32.9053 9.47715 32.9053 7.86942C32.9053 4.16741 35.1476 0 40.0978 0C42.9324 0 46.0844 1.60773 46.5287 5.01358H44.5402C43.8844 2.36929 41.6632 1.81928 39.992 1.81928C37.2631 1.81928 35.0207 3.99817 35.0207 7.97519C35.0207 11.0637 36.0361 14.2369 40.0766 14.2369C40.8382 14.2369 42.0651 14.1523 43.1863 13.2638C44.519 12.2061 44.8575 10.8522 44.8575 9.2233H40.1189ZM51.6269 0.401933V15.5908H49.7653V0.401933H51.6269ZM53.7846 10.0483C53.7846 7.19248 55.3924 4.20972 58.9251 4.20972C62.4579 4.20972 64.0656 7.19248 64.0656 10.0483C64.0656 12.9042 62.4579 15.8869 58.9251 15.8869C55.3924 15.8869 53.7846 12.9042 53.7846 10.0483ZM55.7097 10.0483C55.7097 11.5291 56.2597 14.2792 58.9251 14.2792C61.5906 14.2792 62.1406 11.5291 62.1406 10.0483C62.1406 8.56752 61.5906 5.81745 58.9251 5.81745C56.2597 5.81745 55.7097 8.56752 55.7097 10.0483ZM67.7888 15.5908H66.033V0.401933H67.8946V5.92322H67.9369C68.7408 4.75973 69.8408 4.23087 71.1312 4.20972C74.0717 4.20972 75.7429 6.62132 75.7429 9.73101C75.7429 12.3753 74.6428 15.9081 70.8774 15.9081C68.9946 15.9081 68.2119 14.8292 67.8311 14.2157H67.7888V15.5908ZM73.8178 10.0272C73.8178 8.60983 73.6697 5.88091 70.7927 5.88091C68.1061 5.88091 67.81 8.77906 67.81 10.5772C67.81 13.5176 69.6504 14.3004 70.835 14.3004C72.8659 14.3004 73.8178 12.4599 73.8178 10.0272ZM79.5929 7.89058H77.8794C77.9641 5.24628 79.7199 4.20972 82.4488 4.20972C83.3373 4.20972 86.5527 4.46357 86.5527 7.29825V13.6657C86.5527 14.1311 86.7854 14.3215 87.1662 14.3215C87.3354 14.3215 87.5681 14.2792 87.7797 14.2369V15.5908C87.4624 15.6754 87.1874 15.8023 86.7643 15.8023C85.1142 15.8023 84.8604 14.9561 84.7969 14.11C84.0777 14.8927 82.9565 15.9081 80.7987 15.9081C78.7679 15.9081 77.3294 14.6177 77.3294 12.7138C77.3294 11.783 77.6044 9.62523 80.693 9.24446L83.7604 8.86368C84.2046 8.82137 84.7335 8.65213 84.7335 7.55211C84.7335 6.38862 83.8873 5.75399 82.1315 5.75399C80.016 5.75399 79.7199 7.0444 79.5929 7.89058ZM84.6911 11.7618V9.94255C84.395 10.1752 83.9296 10.3445 81.6238 10.6406C80.7141 10.7676 79.2545 11.0426 79.2545 12.4388C79.2545 13.6446 79.868 14.3638 81.2641 14.3638C82.9988 14.3638 84.6911 13.2426 84.6911 11.7618ZM91.6086 0.401933V15.5908H89.747V0.401933H91.6086ZM113.165 4.97128H111.176C110.605 2.30583 108.384 1.81928 106.924 1.81928C104.174 1.81928 101.953 3.85009 101.953 7.84827C101.953 11.4234 103.222 14.1734 106.988 14.1734C108.321 14.1734 110.626 13.5388 111.324 10.006H113.313C112.467 15.7388 107.813 15.9927 106.671 15.9927C103.222 15.9927 99.8377 13.7503 99.8377 7.91173C99.8377 3.23662 102.503 0 106.924 0C110.838 0 112.869 2.43275 113.165 4.97128ZM117.205 7.89058H115.492C115.577 5.24628 117.332 4.20972 120.061 4.20972C120.95 4.20972 124.165 4.46357 124.165 7.29825V13.6657C124.165 14.1311 124.398 14.3215 124.779 14.3215C124.948 14.3215 125.181 14.2792 125.392 14.2369V15.5908C125.075 15.6754 124.8 15.8023 124.377 15.8023C122.727 15.8023 122.473 14.9561 122.409 14.11C121.69 14.8927 120.569 15.9081 118.411 15.9081C116.38 15.9081 114.942 14.6177 114.942 12.7138C114.942 11.783 115.217 9.62523 118.305 9.24446L121.373 8.86368C121.817 8.82137 122.346 8.65213 122.346 7.55211C122.346 6.38862 121.5 5.75399 119.744 5.75399C117.628 5.75399 117.332 7.0444 117.205 7.89058ZM122.304 11.7618V9.94255C122.007 10.1752 121.542 10.3445 119.236 10.6406C118.327 10.7676 116.867 11.0426 116.867 12.4388C116.867 13.6446 117.48 14.3638 118.877 14.3638C120.611 14.3638 122.304 13.2426 122.304 11.7618ZM129.433 9.15984V15.5908H127.571V4.52703H129.327V6.36746H129.369C130.11 5.07705 131.083 4.20972 132.479 4.20972C132.712 4.20972 132.817 4.23087 132.965 4.27318V6.19823H132.267C130.533 6.19823 129.433 7.55211 129.433 9.15984ZM136.265 4.52703V15.5908H134.404V4.52703H136.265ZM136.265 2.51737H134.404V0.401933H136.265V2.51737ZM148.07 8.05981V15.5908H146.208V8.77906C146.208 6.85401 145.658 5.88091 143.839 5.88091C142.781 5.88091 140.919 6.55785 140.919 9.56177V15.5908H139.058V4.52703H140.814V6.09246H140.856C141.258 5.50013 142.294 4.20972 144.198 4.20972C145.912 4.20972 148.07 4.90781 148.07 8.05981ZM152.216 10.0272C152.216 12.4599 153.168 14.3004 155.199 14.3004C156.383 14.3004 158.224 13.5176 158.224 10.5772C158.224 8.77906 157.928 5.88091 155.241 5.88091C152.364 5.88091 152.216 8.60983 152.216 10.0272ZM160.001 4.52703V14.6811C160.001 16.2677 159.98 20.2447 154.86 20.2447C153.549 20.2447 150.989 19.8851 150.629 16.9446H152.491C152.829 18.7005 154.543 18.7005 154.987 18.7005C158.203 18.7005 158.139 16.1196 158.139 14.8081V14.3427H158.097V14.4273C157.61 15.21 156.637 15.9081 155.156 15.9081C151.391 15.9081 150.291 12.3753 150.291 9.73101C150.291 6.62132 151.962 4.20972 154.902 4.20972C156.912 4.20972 157.758 5.45783 158.203 6.09246H158.245V4.52703H160.001Z" fill="#FFFFFF"/>
</g>
</g>
<defs>
<linearGradient id="paint0_linear_109_18720" x1="0" y1="3.89648" x2="24.4414" y2="3.89648" gradientUnits="userSpaceOnUse">
<stop stop-color="#147D6C"/>
<stop offset="1" stop-color="#1EFFFF"/>
</linearGradient>
</defs>
</svg>
