<svg width="28" height="31" viewBox="0 0 28 31" fill="none" xmlns="http://www.w3.org/2000/svg">
<path d="M6.99844 21.1C3.90564 21.1 1.39844 18.5928 1.39844 15.5C1.39844 12.8301 3.26683 10.5966 5.76743 10.0357C5.6568 9.54153 5.59844 9.02758 5.59844 8.5C5.59844 4.63401 8.73244 1.5 12.5984 1.5C15.9855 1.5 18.8106 3.90555 19.4587 7.10137C19.5052 7.10046 19.5517 7.1 19.5984 7.1C23.4644 7.1 26.5984 10.234 26.5984 14.1C26.5984 17.4865 24.1936 20.3114 20.9984 20.96M18.1984 16.9L13.9984 12.7M13.9984 12.7L9.79844 16.9M13.9984 12.7L13.9984 29.5" stroke="#992964" stroke-width="1.67" stroke-linecap="round" stroke-linejoin="round"/>
</svg>
